# xmcd
#
# Track frame offsets:
#	150
#	9943
#	21361
#	37735
#	50105
#	65055
#	76183
#	90611
#	99208
#	109602
#	123020
#	133377
#	151250
#	169506
#	191829
#	210690
#	221764
#	233612
#	242815
#	252094
#	261963
#	274940
#	287771
#
# Disc length: 4004 seconds
# Revision: 0
# Processed by: cddbd v1.5.2PL0 Copyright (c) Steve Scherf et al.
# Submitted via: dBpowerAMP V12.0
#
DISCID=3e0fa217
DTITLE=Frankie Lane - Greatest Voice
DYEAR=1993
DGENRE=
TTITLE0=I'll Get By
TTITLE1=Side By Side
TTITLE2=mona lisa
TTITLE3=besame mucho
TTITLE4=i'm confession
TTITLE5=sixteen tns
TTITLE6=riders in the sky
TTITLE7=settin' the wood on fire
TTITLE8=pretty eyed baby
TTITLE9=moonlight gambler
TTITLE10=wheel of fortune
TTITLE11=nobody but you
TTITLE12=don't cry, cry baby
TTITLE13=you'll nver find
TTITLE14=how sweet it is
TTITLE15=my friend
TTITLE16=jambalaya
TTITLE17=my little one
TTITLE18=sugar bush
TTITLE19=flamenco
TTITLE20=et voila
TTITLE21=seven woman
TTITLE22=and doesn't she roll
EXTD=
EXTT0=
EXTT1=
EXTT2=
EXTT3=
EXTT4=
EXTT5=
EXTT6=
EXTT7=
EXTT8=
EXTT9=
EXTT10=
EXTT11=
EXTT12=
EXTT13=
EXTT14=
EXTT15=
EXTT16=
EXTT17=
EXTT18=
EXTT19=
EXTT20=
EXTT21=
EXTT22=
PLAYORDER=
